<svg width="22" height="21" viewBox="0 0 22 21" fill="none" xmlns="http://www.w3.org/2000/svg">
<g clip-path="url(#clip0)">
<path d="M19.6032 11.6901C19.9705 11.6901 20.2682 11.3924 20.2682 11.0251C20.2682 10.6578 19.9705 10.3601 19.6032 10.3601C19.236 10.3601 18.9382 10.6578 18.9382 11.0251C18.9382 11.3924 19.236 11.6901 19.6032 11.6901Z" fill="#E8EAED"/>
<path d="M0.983359 11.6901C1.35063 11.6901 1.64836 11.3924 1.64836 11.0251C1.64836 10.6578 1.35063 10.3601 0.983359 10.3601C0.61609 10.3601 0.318359 10.6578 0.318359 11.0251C0.318359 11.3924 0.61609 11.6901 0.983359 11.6901Z" fill="#E8EAED"/>
<path d="M0.983398 1.71509L19.6034 20.3351" stroke="#E8EAED" stroke-width="2" stroke-miterlimit="10"/>
<path d="M12.2881 11.025C12.2881 9.92312 11.395 9.03003 10.2931 9.03003C9.51908 9.03003 8.85541 9.47558 8.5249 10.1193L11.1989 12.7933C11.8426 12.4628 12.2881 11.7991 12.2881 11.025Z" fill="#E8EAED"/>
<path d="M6.60169 8.19675C7.45289 7.0882 8.78754 6.37 10.2931 6.37C12.864 6.37 14.9481 8.45411 14.9481 11.025C14.9481 12.5306 14.2299 13.8652 13.1213 14.7164L14.9381 16.5332C18.4413 14.7217 20.1597 11.3868 20.1597 11.3868L20.1371 10.6313C20.1371 10.6313 16.2781 4.375 10.2931 4.375C8.10791 4.375 6.21 5.21223 4.67651 6.27091L6.60169 8.19675Z" fill="#E8EAED"/>
<path d="M11.9109 15.3859C11.4062 15.5734 10.8628 15.6805 10.2936 15.6805C7.72272 15.6805 5.63861 13.5964 5.63861 11.0255C5.63861 10.4562 5.74567 9.91292 5.9332 9.40819L3.61102 7.08667C1.60139 8.7771 0.449612 10.6318 0.449612 10.6318L0.427002 11.3872C0.426337 11.3872 3.64361 17.6755 10.2936 17.6755C11.5239 17.6755 12.6351 17.458 13.6319 17.1076L11.9109 15.3859Z" fill="#E8EAED"/>
</g>
<defs>
<clipPath id="clip0">
<rect width="19.95" height="19.95" fill="white" transform="translate(0.318359 1.05005)"/>
</clipPath>
</defs>
</svg>
