<svg width="21" height="20" viewBox="0 0 21 20" fill="none" xmlns="http://www.w3.org/2000/svg">
<g clip-path="url(#clip0)">
<path d="M19.6518 10.6666C20.02 10.6666 20.3184 10.3681 20.3184 9.99992C20.3184 9.63173 20.02 9.33325 19.6518 9.33325C19.2836 9.33325 18.9851 9.63173 18.9851 9.99992C18.9851 10.3681 19.2836 10.6666 19.6518 10.6666Z" fill="#1DB954"/>
<path d="M0.985026 10.6666C1.35322 10.6666 1.65169 10.3681 1.65169 9.99992C1.65169 9.63173 1.35322 9.33325 0.985026 9.33325C0.616836 9.33325 0.318359 9.63173 0.318359 9.99992C0.318359 10.3681 0.616836 10.6666 0.985026 10.6666Z" fill="#1DB954"/>
<path d="M10.3184 12C11.4229 12 12.3184 11.1046 12.3184 10C12.3184 8.89543 11.4229 8 10.3184 8C9.21379 8 8.31836 8.89543 8.31836 10C8.31836 11.1046 9.21379 12 10.3184 12Z" fill="#1DB954"/>
<path d="M20.1872 9.60525C20.1872 9.60525 16.3186 3.33325 10.3186 3.33325C4.31858 3.33325 0.449913 9.60525 0.449913 9.60525L0.427246 10.3626C0.42658 10.3626 3.65191 16.6666 10.3186 16.6666C16.9852 16.6666 20.2106 10.3626 20.2106 10.3626L20.1872 9.60525ZM10.3186 14.6666C7.74125 14.6666 5.65191 12.5773 5.65191 9.99992C5.65191 7.42259 7.74125 5.33325 10.3186 5.33325C12.8959 5.33325 14.9852 7.42259 14.9852 9.99992C14.9852 12.5773 12.8959 14.6666 10.3186 14.6666Z" fill="#1DB954"/>
</g>
<defs>
<clipPath id="clip0">
<rect width="20" height="20" fill="white" transform="translate(0.318359)"/>
</clipPath>
</defs>
</svg>
