<svg width="20" height="20" viewBox="0 0 20 20" fill="none" xmlns="http://www.w3.org/2000/svg">
<g clip-path="url(#clip0)">
<path d="M6.47085 2.89722C5.7165 2.89791 4.98454 3.15365 4.39389 3.62288C3.80324 4.09212 3.38861 4.74729 3.21735 5.48194H0.768188C0.564452 5.48194 0.36906 5.56288 0.224997 5.70694C0.0809339 5.85101 0 6.0464 0 6.25013C0 6.45387 0.0809339 6.64926 0.224997 6.79332C0.36906 6.93739 0.564452 7.01832 0.768188 7.01832H3.21735C3.39114 7.75057 3.80686 8.40278 4.39727 8.86947C4.98769 9.33616 5.71827 9.59004 6.47085 9.59004C7.22344 9.59004 7.95402 9.33616 8.54444 8.86947C9.13485 8.40278 9.55057 7.75057 9.72436 7.01832H19.2318C19.4355 7.01832 19.6309 6.93739 19.775 6.79332C19.9191 6.64926 20 6.45387 20 6.25013C20 6.0464 19.9191 5.85101 19.775 5.70694C19.6309 5.56288 19.4355 5.48194 19.2318 5.48194H9.72436C9.5531 4.74729 9.13846 4.09212 8.54781 3.62288C7.95717 3.15365 7.22521 2.89791 6.47085 2.89722V2.89722ZM6.47085 8.06667C6.11336 8.06667 5.7639 7.96066 5.46666 7.76205C5.16942 7.56344 4.93775 7.28115 4.80094 6.95087C4.66414 6.62059 4.62834 6.25717 4.69808 5.90654C4.76783 5.55592 4.93997 5.23386 5.19276 4.98107C5.44554 4.72829 5.76761 4.55614 6.11823 4.4864C6.46885 4.41666 6.83228 4.45245 7.16255 4.58926C7.49283 4.72606 7.77513 4.95773 7.97374 5.25498C8.17235 5.55222 8.27835 5.90168 8.27835 6.25917C8.27835 6.73855 8.08792 7.1983 7.74895 7.53727C7.40998 7.87624 6.95023 8.06667 6.47085 8.06667Z" fill="#82888D"/>
<path d="M13.5563 10.3977C12.8019 10.3984 12.0699 10.6541 11.4793 11.1234C10.8886 11.5926 10.474 12.2478 10.3028 12.9824H0.768188C0.564452 12.9824 0.36906 13.0634 0.224997 13.2074C0.0809339 13.3515 0 13.5469 0 13.7506C0 13.9544 0.0809339 14.1498 0.224997 14.2938C0.36906 14.4379 0.564452 14.5188 0.768188 14.5188H10.2756C10.4494 15.2511 10.8651 15.9033 11.4556 16.37C12.046 16.8366 12.7766 17.0905 13.5291 17.0905C14.2817 17.0905 15.0123 16.8366 15.6027 16.37C16.1931 15.9033 16.6089 15.2511 16.7826 14.5188H19.2318C19.4355 14.5188 19.6309 14.4379 19.775 14.2938C19.9191 14.1498 20 13.9544 20 13.7506C20 13.5469 19.9191 13.3515 19.775 13.2074C19.6309 13.0634 19.4355 12.9824 19.2318 12.9824H16.7826C16.6125 12.2523 16.2019 11.6005 15.6167 11.1317C15.0316 10.663 14.306 10.4045 13.5563 10.3977ZM13.5563 15.5491C13.1988 15.5491 12.8493 15.4431 12.5521 15.2445C12.2548 15.0459 12.0232 14.7636 11.8863 14.4333C11.7495 14.103 11.7137 13.7396 11.7835 13.389C11.8532 13.0383 12.0254 12.7163 12.2782 12.4635C12.5309 12.2107 12.853 12.0386 13.2036 11.9688C13.5543 11.8991 13.9177 11.9349 14.248 12.0717C14.5782 12.2085 14.8605 12.4401 15.0591 12.7374C15.2578 13.0346 15.3638 13.3841 15.3638 13.7416C15.3638 14.221 15.1733 14.6807 14.8344 15.0197C14.4954 15.3587 14.0356 15.5491 13.5563 15.5491Z" fill="#82888D"/>
</g>
<defs>
<clipPath id="clip0">
<rect width="20" height="20" fill="white"/>
</clipPath>
</defs>
</svg>
